<svg width="169" height="166" viewBox="0 0 169 166" fill="none" xmlns="http://www.w3.org/2000/svg">
<rect width="26" height="10" rx="5" transform="matrix(0.718612 0.695411 -0.668388 0.743813 30 40)" fill="#111111"/>
<rect width="39" height="9" rx="4.5" transform="matrix(-0.587785 0.809017 -0.78807 -0.615586 67.0001 35)" fill="#111111"/>
<rect x="78" y="48" width="64" height="11" rx="5.5" fill="#111111"/>
<rect width="26" height="10" rx="5" transform="matrix(0.718612 0.695411 -0.668388 0.743813 30.6839 71.5403)" fill="#111111"/>
<rect width="39" height="9" rx="4.5" transform="matrix(-0.587785 0.809017 -0.78807 -0.615586 67.6839 66.5403)" fill="#111111"/>
<rect x="78.6839" y="79.5403" width="64" height="11" rx="5.5" fill="#111111"/>
<rect width="26" height="10" rx="5" transform="matrix(0.718612 0.695411 -0.668388 0.743813 29.6839 103.54)" fill="#111111"/>
<rect width="39" height="9" rx="4.5" transform="matrix(-0.587785 0.809017 -0.78807 -0.615586 66.6839 98.5403)" fill="#111111"/>
<rect x="77.6839" y="111.54" width="64" height="11" rx="5.5" fill="#111111"/>
</svg>
